<svg width="32" height="32" viewBox="0 0 32 32" fill="none" xmlns="http://www.w3.org/2000/svg">
<g filter="url(#filter0_i)">
<path fill-rule="evenodd" clip-rule="evenodd" d="M31.8877 12.0781C31.6377 11.3594 31.0284 10.8281 30.2786 10.7188L21.6708 9.39062L17.8278 1.14062C17.4685 0.46875 16.7811 0 16 0C15.2189 0 14.5315 0.46875 14.1722 1.14062L10.3292 9.39062L1.67455 10.7188C0.971555 10.8281 0.362294 11.3594 0.112341 12.0781C-0.137613 12.7812 0.0342302 13.5781 0.581003 14.1094L6.86108 20.5312L5.36136 29.6719C5.25201 30.4219 5.58007 31.1719 6.17371 31.6406C6.53302 31.8906 6.92357 32 7.36099 32C7.67343 32 8.00149 31.9219 8.32956 31.75L16 27.5L23.6704 31.75C23.9985 31.9219 24.3266 32 24.639 32C25.0764 32 25.467 31.8906 25.8263 31.6406C26.4199 31.1719 26.748 30.4219 26.6386 29.6719L25.1389 20.5312L31.419 14.1094C31.9658 13.5781 32.1376 12.7812 31.8877 12.0781Z" fill="url(#paint0_linear)"/>
</g>
<defs>
<filter id="filter0_i" x="0" y="0" width="32" height="32" filterUnits="userSpaceOnUse" color-interpolation-filters="sRGB">
<feFlood flood-opacity="0" result="BackgroundImageFix"/>
<feBlend mode="normal" in="SourceGraphic" in2="BackgroundImageFix" result="shape"/>
<feColorMatrix in="SourceAlpha" type="matrix" values="0 0 0 0 0 0 0 0 0 0 0 0 0 0 0 0 0 0 127 0" result="hardAlpha"/>
<feOffset dy="-1"/>
<feComposite in2="hardAlpha" operator="arithmetic" k2="-1" k3="1"/>
<feColorMatrix type="matrix" values="0 0 0 0 0 0 0 0 0 0 0 0 0 0 0 0 0 0 0.1 0"/>
<feBlend mode="normal" in2="shape" result="effect1_innerShadow"/>
</filter>
<linearGradient id="paint0_linear" x1="0" y1="0" x2="0" y2="32" gradientUnits="userSpaceOnUse">
<stop stop-color="#FFCD69"/>
<stop offset="1" stop-color="#FDCE71"/>
</linearGradient>
</defs>
</svg>
